<!-- created with https://36c3.bleeptrack.de/ --><svg version="1.1" xmlns="http://www.w3.org/2000/svg" xmlns:xlink="http://www.w3.org/1999/xlink" width="347.86855" height="422.21801" viewBox="599.8923,398.87767,347.86855,422.21801"><g fill="none" fill-rule="nonzero" stroke="none" stroke-width="none" stroke-linecap="butt" stroke-linejoin="miter" stroke-miterlimit="10" stroke-dasharray="" stroke-dashoffset="0" font-family="none" font-weight="none" font-size="none" text-anchor="none" style="mix-blend-mode: normal"><path d="M726.49896,399.03242l111.99989,-0.15475l23.08015,78.36754l-6.05847,6.5731l-15.79048,-0.578l-9.55136,10.0991l-15.42254,-2.80752l-15.26012,1.21305l-6.31812,11.07528l-10.75676,-1.27148l-7.70122,0.65155l-1.31067,-0.6008l-11.65268,0.13668l-10.64808,-14.69541l-12.05188,1.05354l-9.74547,-5.82004l6.1965,7.66527l10.2774,-0.13093l8.8736,15.61802l8.76651,0.69749l-0.53743,0.27943l-7.8645,1.78851l-7.09531,5.59895l-9.73065,-2.17767l-9.82056,2.70603l-14.34924,-0.03542l-14.99498,4.33047l-6.35748,-3.55228z" fill="#d0d0ce" stroke="none" stroke-width="1"/><path d="M774.71994,502.20028l-11.29477,3.9238" fill="none" stroke="none" stroke-width="1"/><path d="" fill="none" stroke="#00bb31" stroke-width="6" opacity="0"/><path d="M661.46551,621.65853l8.44768,-28.85479" fill="none" stroke="none" stroke-width="1"/><path d="" fill="none" stroke="#00bb31" stroke-width="6" opacity="0"/><path d="M947.76084,770.86624l-95.5,0.02161l-33.52217,-97.99242l-72.5,0.01641l-32.97782,98.00746l-95.5,0.02161l43.70466,-149.28237l0.40238,-0.07771l11.50133,-8.31523l8.69205,2.08227l7.99392,-3.87698l13.8908,3.48691l8.87077,-4.98654l12.49454,-8.43158l8.34299,-0.89735l14.00716,4.48012l14.06952,-3.5819l13.07632,-3.46555l15.29544,-1.71184l10.44576,-0.13686l13.37139,-9.54115l11.48723,-3.19934l-10.36334,-0.63952l-12.80945,7.62171l-9.88382,-1.78258l-14.7335,-0.20759l-9.48259,1.17155l2.31266,-6.46447l10.85795,3.17883l5.57855,-6.47146l7.25056,-9.66589l9.81547,-0.81031l6.77061,-10.54319l10.04764,-6.63664l10.52758,-5.75934l-12.44736,2.25015l-11.00753,4.88204l-7.7305,8.78859l-10.77536,-0.94429l-8.21045,7.91129l-6.53844,4.71686l-11.81784,-4.93343l-4.05613,11.33789l-7.49833,2.96226l-9.89806,-1.42423l-5.42229,2.96638l-5.52435,-0.72565l-11.93259,6.51215l-8.30883,3.06711l-13.32886,-5.40634l-7.43198,1.95754l-8.13011,-4.0017l-10.93939,6.3958l-0.38384,0.0144l22.80551,-77.89697l6.35337,3.55962l14.99997,-4.31314l14.34919,0.052l9.82368,-2.69468l9.72813,2.18891l7.10177,-5.59075l7.86656,-1.77942l7.3602,-3.81601l12.17881,-1.01619l10.75528,1.28391l6.33091,-11.06797l15.26151,-1.19541l15.41928,2.82534l9.56303,-10.08805l15.7898,0.59624l6.06606,-6.56609z" fill="#d0d0ce" stroke="none" stroke-width="1"/><path d="M635.70572,787.95302c-3.40724,-0.14785 -6.18718,-1.43494 -8.33984,-3.8613c-2.15266,-2.42635 -3.29297,-5.47174 -3.42093,-9.13618l-0.50604,-14.49117c-0.12796,-3.66443 0.78164,-6.74806 2.72881,-9.25087c1.94717,-2.50281 4.61507,-3.9468 8.00369,-4.33196c1.39682,-0.11549 2.73865,0.10449 4.02548,0.65991c1.28683,0.55543 2.4474,1.31539 3.48169,2.27988c1.03429,0.96449 1.92333,2.06747 2.6671,3.30894c0.74378,1.24147 1.33649,2.45485 1.77812,3.64016l14.20848,-8.60111c-0.81199,-2.23969 -1.90714,-4.4695 -3.28546,-6.68941c-1.37831,-2.21992 -3.14824,-4.19268 -5.30978,-5.9183c-2.16154,-1.72561 -4.72786,-3.10356 -7.69896,-4.13383c-2.9711,-1.03027 -6.48874,-1.47444 -10.55293,-1.33252l-0.09994,0.00349c-4.5972,0.16054 -8.59841,1.15078 -12.00364,2.97073c-3.40523,1.81995 -6.20828,4.16921 -8.40916,7.04777c-2.20088,2.87856 -3.82206,6.12045 -4.86354,9.72566c-1.04148,3.60521 -1.53155,7.24119 -1.47021,10.90795l0.53745,15.39062c0.33482,3.85733 1.06417,7.55079 2.18803,11.08039c1.12387,3.52959 2.81559,6.60576 5.07516,9.2285c2.25958,2.62274 5.1329,4.67371 8.61998,6.15292c3.48708,1.4792 7.76241,2.13039 12.82599,1.95357l0.09994,-0.00349c4.53057,-0.15821 8.32223,-0.94101 11.37497,-2.34841c3.05274,-1.4074 5.54709,-3.04545 7.48306,-4.91415c1.93596,-1.8687 3.42104,-3.75501 4.45522,-5.65893c1.03418,-1.90392 1.83015,-3.46598 2.38791,-4.68619l-14.77385,-7.58902c-0.91796,2.36681 -2.29728,4.4162 -4.13795,6.14816c-1.84068,1.73196 -4.19697,2.54802 -7.06887,2.44819zM603.54278,821.09568l-3.65049,-104.53628l322.30354,-11.25509l3.65049,104.53628zM721.32972,801.47303l-16.12732,-29.15493c0.86614,-0.03025 2.0497,-0.52185 3.55069,-1.47482c1.50099,-0.95296 2.9702,-2.33842 4.40763,-4.15636c1.43743,-1.81794 2.66044,-4.04531 3.66903,-6.68212c1.00859,-2.63681 1.45472,-5.62086 1.33839,-8.95216c-0.11168,-3.19805 -0.58457,-6.2334 -1.41866,-9.10604c-0.8341,-2.87264 -2.13843,-5.36197 -3.91301,-7.46799c-1.77458,-2.10602 -4.10036,-3.75919 -6.97734,-4.95952c-2.87698,-1.20033 -6.4475,-1.72604 -10.71157,-1.57713l-22.68617,0.79222l2.59652,74.35468l16.78977,-0.58631l-0.84457,-24.18526l0.19988,-0.00698l10.83848,23.83626zM769.0162,780.19583l7.37995,19.35423l19.08836,-0.66658l-24.38324,-73.59387l-22.38635,0.78175l-19.1902,75.11549l19.08836,-0.66658l5.91195,-19.8184zM856.59425,778.03809c-0.13262,-3.79769 -0.91347,-7.05575 -2.34254,-9.7742c-1.42908,-2.71845 -3.28133,-5.13861 -5.55677,-7.26049c-2.27544,-2.12188 -4.85921,-3.99952 -7.75131,-5.63291c-2.8921,-1.6334 -5.9008,-3.26272 -9.02609,-4.88797c-2.2545,-1.52225 -3.91497,-2.74838 -4.98141,-3.67839c-1.06644,-0.93001 -1.62176,-2.02797 -1.66597,-3.29387c-0.05817,-1.66565 0.44787,-2.93408 1.51812,-3.8053c1.07025,-0.87122 2.27163,-1.33009 3.60415,-1.37662c1.2659,-0.04421 2.39119,0.18333 3.37588,0.6826c0.98469,0.49927 1.8402,1.11979 2.56653,1.86156c0.72633,0.74177 1.30508,1.5554 1.73624,2.44089c0.43117,0.88549 0.75948,1.69119 0.98496,2.4171l14.48863,-6.30949c-0.40293,-1.98715 -1.17288,-3.97816 -2.30986,-5.97303c-1.13698,-1.99487 -2.68281,-3.75866 -4.63749,-5.29138c-1.95468,-1.53272 -4.33254,-2.76715 -7.13359,-3.7033c-2.80104,-0.93615 -6.03378,-1.34024 -9.69822,-1.21228c-3.06247,0.17365 -6.01104,0.74357 -8.84572,1.70975c-2.83467,0.96618 -5.32226,2.32049 -7.46275,4.06292c-2.14049,1.74243 -3.83396,3.86949 -5.08039,6.38119c-1.24644,2.5117 -1.81265,5.39988 -1.69865,8.66456c0.12331,3.53118 0.84197,6.44121 2.15599,8.73008c1.31401,2.28887 3.08627,4.32826 5.31676,6.11817c2.23049,1.78991 4.82452,3.48375 7.78208,5.0815c2.95756,1.59776 6.17486,3.46995 9.6519,5.61658c1.56963,1.0125 2.78772,1.98725 3.65428,2.92425c0.86656,0.93699 1.35293,1.97065 1.45911,3.10097c0.13177,1.8632 -0.33688,3.24707 -1.40597,4.1516c-1.06908,0.90453 -2.16762,1.44319 -3.29561,1.616c-1.32554,0.24641 -2.58467,0.00687 -3.77738,-0.71861c-1.19271,-0.72548 -2.20569,-1.5573 -3.03894,-2.49546c-0.83325,-0.93816 -1.48153,-1.83275 -1.94485,-2.68376c-0.46332,-0.85102 -0.62951,-1.31216 -0.49859,-1.38344l-15.75643,7.25431c0.75933,2.64178 1.92518,4.98585 3.49755,7.03222c1.57238,2.04637 3.45017,3.76522 5.63339,5.15654c2.18322,1.39132 4.60465,2.44079 7.2643,3.1484c2.65965,0.70761 5.48856,1.00907 8.48673,0.90437c3.86431,-0.13494 7.31316,-0.70566 10.34655,-1.71213c3.03339,-1.00648 5.60542,-2.33038 7.71609,-3.97171c2.11067,-1.64133 3.74565,-3.53287 4.90495,-5.67464c1.15929,-2.14176 1.76369,-4.41424 1.81318,-6.81743zM917.91179,720.16288l-18.78855,0.65611l-7.98053,17.88941l-9.30893,-17.28565l-18.78855,0.65611l20.38663,36.51076l1.29826,37.17734l15.79038,-0.55141l-1.29826,-37.17734z" fill="#fe5000" stroke="none" stroke-width="1"/></g></svg>
